<svg width="35" height="30" viewBox="0 0 35 30" fill="none" xmlns="http://www.w3.org/2000/svg">
<path d="M19.3231 8.92708H15.6772C14.6724 8.92708 13.8543 9.74524 13.8543 10.75V19.1355H9.84392C8.88579 19.1355 8.38849 20.2889 9.05204 20.9846L16.7083 29.0054C17.121 29.4371 17.8793 29.4371 18.292 29.0054L25.9483 20.9846C26.6118 20.2889 26.1145 19.1355 25.1563 19.1355H21.146V10.75C21.146 9.74524 20.3279 8.92708 19.3231 8.92708Z" fill="white"/>
<path d="M30.625 0.177084H4.375C1.96291 0.177084 0 2.14002 0 4.55208V11.8437C0 14.2559 1.96291 16.2187 4.375 16.2187H6.5625C7.3675 16.2187 8.02084 15.5655 8.02084 14.7605C8.02084 13.9555 7.3675 13.3021 6.5625 13.3021H4.375C3.57146 13.3021 2.91666 12.6473 2.91666 11.8437V4.55208C2.91666 3.74848 3.57146 3.0937 4.375 3.0937H30.625C31.4286 3.0937 32.0834 3.74848 32.0834 4.55208V11.8437C32.0834 12.6473 31.4286 13.3021 30.625 13.3021H28.4375C27.6325 13.3021 26.9791 13.9555 26.9791 14.7605C26.9791 15.5655 27.6325 16.2187 28.4375 16.2187H30.625C33.0371 16.2187 35 14.2559 35 11.8437V4.55208C35 2.14002 33.0371 0.177084 30.625 0.177084Z" fill="white"/>
</svg>
