<?xml version="1.0" encoding="UTF-8"?>
<svg width="257px" height="28px" viewBox="0 0 257 28" version="1.1" xmlns="http://www.w3.org/2000/svg" xmlns:xlink="http://www.w3.org/1999/xlink">
    <title>архитекторы.рф</title>
    <g id="Page-1" stroke="none" stroke-width="1" fill="none" fill-rule="evenodd">
        <g id="Medium" transform="translate(-662, -1430)" fill="#000000" fill-rule="nonzero">
            <g id="архитекторы.рф" transform="translate(662, 1430)">
                <path d="M4.89473684,10.7272727 C4.95789474,8.89454545 6,8.10909091 7.89473684,8.10909091 C9.63157895,8.10909091 10.5789474,8.89454545 10.5789474,10.2363636 C10.5789474,12.1345455 7.98947368,12.3636364 5.24210526,13.0836364 C2.52631579,13.8036364 0,15.2436364 0,18.4181818 C0,21.56 2.21052632,23 5.21052632,23 C9.41052632,23 10.4210526,19.2363636 10.4210526,19.2363636 L10.5789474,19.2363636 L10.5789474,22.5090909 L15,22.5090909 L15,10.8909091 C15,6.47272727 11.8421053,5 7.89473684,5 C4.10526316,5 0.726315789,6.37454545 0.473684211,10.7272727 L4.89473684,10.7272727 Z M10.5789474,13.9345455 C10.5789474,16.4545455 9.78947368,20.0545455 6.78947368,20.0545455 C5.36842105,20.0545455 4.48421053,19.2363636 4.48421053,17.9272727 C4.48421053,16.4218182 5.68421053,15.6690909 7.10526316,15.3090909 C8.36842105,14.9818182 9.85263158,14.6218182 10.5789474,13.9345455 Z" id="Shape"></path>
                <path d="M17,28 L21.5333333,28 L21.5333333,20.4405594 L21.6952381,20.4405594 C21.6952381,20.4405594 23.152381,22.6923077 26.7142857,22.6923077 C31.5714286,22.6923077 34,18.5104895 34,13.8461538 C34,9.18181818 31.5714286,5 26.7142857,5 C22.9904762,5 21.5333333,7.73426573 21.5333333,7.73426573 L21.3714286,7.73426573 L21.3714286,5.48251748 L17,5.48251748 L17,28 Z M21.3714286,13.8461538 C21.3714286,10.8223776 22.6666667,8.37762238 25.4190476,8.37762238 C28.1714286,8.37762238 29.4666667,10.8223776 29.4666667,13.8461538 C29.4666667,16.8699301 28.1714286,19.3146853 25.4190476,19.3146853 C22.6666667,19.3146853 21.3714286,16.8699301 21.3714286,13.8461538 Z" id="Shape"></path>
                <polygon id="Path" points="38.8909091 6 33.4909091 6 39.3818182 14.1730769 33 23 38.4 23 42 17.4423077 45.6 23 51 23 44.6181818 14.1730769 50.5090909 6 45.1090909 6 42 10.9038462"></polygon>
                <path d="M66,6 L61.6701031,6 L61.6701031,14.5794393 C61.6701031,17.9158879 60.4329897,19.3457944 58.1134021,19.3457944 C56.1030928,19.3457944 55.3298969,18.0747664 55.3298969,15.2149533 L55.3298969,6 L51,6 L51,16.1682243 C51,19.9813084 52.2371134,23 56.7216495,23 C60.2783505,23 61.6701031,19.8224299 61.6701031,19.8224299 L61.8247423,19.8224299 L61.8247423,22.5233645 L66,22.5233645 L66,6 Z" id="Path"></path>
                <path d="M77.76,22 L82.24,22 L82.24,13.4205607 C82.24,10.0841121 83.264,8.65420561 85.184,8.65420561 C86.944,8.65420561 87.52,9.92523364 87.52,12.7850467 L87.52,22 L92,22 L92,11.8317757 C92,8.01869159 90.88,5 86.72,5 C83.36,5 81.92,8.17757009 81.92,8.17757009 L81.76,8.17757009 L81.728,8.20934579 C81.088,6.27102804 79.648,5 76.96,5 C73.6,5 72.48,8.17757009 72.48,8.17757009 L72.32,8.17757009 L72.32,5.47663551 L68,5.47663551 L68,22 L72.48,22 L72.48,13.4205607 C72.48,10.0841121 73.504,8.65420561 75.424,8.65420561 C77.184,8.65420561 77.76,9.92523364 77.76,12.7850467 L77.76,22 Z" id="Path"></path>
                <path d="M93,14 C93,18.9745455 95.6666667,23 101.156863,23 C107.901961,23 108.843137,16.9454545 108.843137,16.9454545 L104.45098,16.9454545 C104.45098,16.9454545 103.980392,19.5636364 101.313725,19.5636364 C98.6784314,19.5636364 97.6117647,17.6 97.4235294,14.9818182 L108.968627,14.9818182 C108.968627,14.9818182 109,14.3927273 109,14 C109,9.02545455 106.521569,5 101.156863,5 C95.7921569,5 93,9.02545455 93,14 Z M101.156863,8.43636364 C103.321569,8.43636364 104.2,9.94181818 104.482353,12.0363636 L97.5490196,12.0363636 C97.9254902,9.94181818 98.9921569,8.43636364 101.156863,8.43636364 Z" id="Shape"></path>
                <polygon id="Path" points="111 23 115.48 23 115.48 17.8346154 117.304 15.9057692 121.528 23 127 23 120.408 12.6365385 126.68 6 121.4 6 115.48 12.8653846 115.48 6 111 6"></polygon>
                <path d="M137.76,22 L142.24,22 L142.24,13.4205607 C142.24,10.0841121 143.264,8.65420561 145.184,8.65420561 C146.944,8.65420561 147.52,9.92523364 147.52,12.7850467 L147.52,22 L152,22 L152,11.8317757 C152,8.01869159 150.88,5 146.72,5 C143.36,5 141.92,8.17757009 141.92,8.17757009 L141.76,8.17757009 L141.728,8.20934579 C141.088,6.27102804 139.648,5 136.96,5 C133.6,5 132.48,8.17757009 132.48,8.17757009 L132.32,8.17757009 L132.32,5.47663551 L128,5.47663551 L128,22 L132.48,22 L132.48,13.4205607 C132.48,10.0841121 133.504,8.65420561 135.424,8.65420561 C137.184,8.65420561 137.76,9.92523364 137.76,12.7850467 L137.76,22 Z" id="Path"></path>
                <path d="M157.490566,14 C157.490566,10.9236364 158.645283,8.43636364 161.5,8.43636364 C164.354717,8.43636364 165.509434,10.9236364 165.509434,14 C165.509434,17.0763636 164.354717,19.5636364 161.5,19.5636364 C158.645283,19.5636364 157.490566,17.0763636 157.490566,14 Z M153,14 C153,18.9745455 156.015094,23 161.5,23 C166.984906,23 170,18.9745455 170,14 C170,9.02545455 166.984906,5 161.5,5 C156.015094,5 153,9.02545455 153,14 Z" id="Shape"></path>
                <path d="M172,28 L176.533333,28 L176.533333,20.4405594 L176.695238,20.4405594 C176.695238,20.4405594 178.152381,22.6923077 181.714286,22.6923077 C186.571429,22.6923077 189,18.5104895 189,13.8461538 C189,9.18181818 186.571429,5 181.714286,5 C177.990476,5 176.533333,7.73426573 176.533333,7.73426573 L176.371429,7.73426573 L176.371429,5.48251748 L172,5.48251748 L172,28 Z M176.371429,13.8461538 C176.371429,10.8223776 177.666667,8.37762238 180.419048,8.37762238 C183.171429,8.37762238 184.466667,10.8223776 184.466667,13.8461538 C184.466667,16.8699301 183.171429,19.3146853 180.419048,19.3146853 C177.666667,19.3146853 176.371429,16.8699301 176.371429,13.8461538 Z" id="Shape"></path>
                <path d="M190,23 L196.61157,23 C201.404959,23 204.049587,20.875 204.049587,17.6057692 C204.049587,14.3365385 201.404959,12.2115385 196.61157,12.2115385 L194.628099,12.2115385 L194.628099,6 L190,6 L190,23 Z M195.950413,15.4807692 C198.429752,15.4807692 199.421488,16.1346154 199.421488,17.6057692 C199.421488,19.0769231 198.429752,19.7307692 195.950413,19.7307692 L194.628099,19.7307692 L194.628099,15.4807692 L195.950413,15.4807692 Z M210,6 L205.371901,6 L205.371901,23 L210,23 L210,6 Z" id="Shape"></path>
                <path d="M211,19.5 C211,20.875 212.125,22 213.5,22 C214.875,22 216,20.875 216,19.5 C216,18.125 214.875,17 213.5,17 C212.125,17 211,18.125 211,19.5 Z" id="Path"></path>
                <path d="M217,28 L221.533333,28 L221.533333,20.4405594 L221.695238,20.4405594 C221.695238,20.4405594 223.152381,22.6923077 226.714286,22.6923077 C231.571429,22.6923077 234,18.5104895 234,13.8461538 C234,9.18181818 231.571429,5 226.714286,5 C222.990476,5 221.533333,7.73426573 221.533333,7.73426573 L221.371429,7.73426573 L221.371429,5.48251748 L217,5.48251748 L217,28 Z M221.371429,13.8461538 C221.371429,10.8223776 222.666667,8.37762238 225.419048,8.37762238 C228.171429,8.37762238 229.466667,10.8223776 229.466667,13.8461538 C229.466667,16.8699301 228.171429,19.3146853 225.419048,19.3146853 C222.666667,19.3146853 221.371429,16.8699301 221.371429,13.8461538 Z" id="Shape"></path>
                <path d="M248.264706,22.4318182 C253.797059,22.4318182 257,18.9318182 257,14 C257,9.06818182 253.797059,5.56818182 248.264706,5.56818182 L248.264706,0 L243.735294,0 L243.735294,5.56818182 C238.202941,5.56818182 235,9.06818182 235,14 C235,18.9318182 238.202941,22.4318182 243.735294,22.4318182 L243.735294,28 L248.264706,28 L248.264706,22.4318182 Z M243.735294,19.25 C240.855882,19.25 239.529412,17.0227273 239.529412,14 C239.529412,10.9772727 240.855882,8.75 243.735294,8.75 L243.735294,19.25 Z M252.470588,14 C252.470588,17.0227273 251.144118,19.25 248.264706,19.25 L248.264706,8.75 C251.144118,8.75 252.470588,10.9772727 252.470588,14 Z" id="Shape"></path>
            </g>
        </g>
    </g>
</svg>