<svg width="345" height="165" viewBox="0 0 345 165" fill="none" xmlns="http://www.w3.org/2000/svg">
<g clip-path="url(#clip0_0_137)">
<g clip-path="url(#clip1_0_137)">
<g clip-path="url(#clip2_0_137)">
<path fill-rule="evenodd" clip-rule="evenodd" d="M88.435 126.8C87.9917 126.61 87.77 126.293 87.77 125.85V79.3C87.77 78.7934 87.5483 78.4767 87.105 78.35L80.835 76.07C80.7083 76.0067 80.5817 75.975 80.455 75.975H67.06C66.4267 75.975 66.11 76.3234 66.11 77.02V125.185H55.66V79.3C55.66 78.7934 55.4383 78.4767 54.995 78.35L48.725 76.07C48.6617 76.0067 48.535 75.975 48.345 75.975H34V139.055C34 139.562 34.19 139.847 34.57 139.91L41.03 142.285H41.315H67.725C68.4217 142.285 68.77 142.633 68.77 143.33V143.9C68.77 144.343 68.9917 144.628 69.435 144.755L75.705 147.13H76.085H89.48C90.1133 147.13 90.43 146.813 90.43 146.18V128.225C90.43 127.782 90.24 127.497 89.86 127.37L88.435 126.8ZM38.75 135.825C38.1167 135.825 37.8 135.508 37.8 134.875V80.25C37.8 79.7434 38.085 79.49 38.655 79.49H44.26C44.7667 79.49 45.02 79.7434 45.02 80.25V128.795C45.02 129.365 45.2733 129.65 45.78 129.65H68.865C69.3717 129.65 69.625 129.365 69.625 128.795V80.25C69.625 79.7434 69.8783 79.49 70.385 79.49H76.085C76.5917 79.49 76.845 79.7434 76.845 80.25V128.7C76.845 129.207 77.0983 129.46 77.605 129.46H78.745C79.2517 129.46 79.505 129.713 79.505 130.22V140.1C79.505 140.607 79.2517 140.86 78.745 140.86H73.045C72.5383 140.86 72.285 140.607 72.285 140.1V136.585C72.285 136.078 72.0317 135.825 71.525 135.825H38.75Z" fill="black" fill-opacity="0.85"/>
<path fill-rule="evenodd" clip-rule="evenodd" d="M139.07 102.005C139.007 101.942 138.88 101.91 138.69 101.91H91.855C91.2217 101.91 90.905 102.227 90.905 102.86V114.925C90.905 115.368 91.095 115.685 91.475 115.875L97.84 118.155H98.22H145.055C145.688 118.155 146.005 117.838 146.005 117.205V105.235C146.005 104.792 145.815 104.475 145.435 104.285L139.07 102.005ZM97.365 111.98C96.3517 111.98 95.845 111.473 95.845 110.46V107.04C95.845 106.027 96.3517 105.52 97.365 105.52H132.42C133.433 105.52 133.94 106.027 133.94 107.04V110.46C133.94 111.473 133.433 111.98 132.42 111.98H97.365Z" fill="black" fill-opacity="0.85"/>
<path fill-rule="evenodd" clip-rule="evenodd" d="M200.155 130.03C200.155 129.587 199.965 129.302 199.585 129.175L193.125 126.8H192.84H178.97L192.935 111.315L193.03 111.22C194.55 109.383 195.722 107.357 196.545 105.14C197.368 102.923 197.78 100.612 197.78 98.205C197.78 95.545 197.289 92.9959 196.308 90.5575C195.326 88.1192 193.917 85.9817 192.08 84.145C190.56 82.625 188.913 81.3425 187.14 80.2975C185.367 79.2525 183.641 78.4134 181.963 77.78C180.284 77.1467 178.701 76.6559 177.213 76.3075C175.724 75.9592 174.473 75.7217 173.46 75.595C173.08 75.5317 172.716 75.4842 172.368 75.4525C172.019 75.4209 171.655 75.405 171.275 75.405H170.99H164.53H164.435C161.902 75.5317 159.495 76.07 157.215 77.02C154.935 77.97 152.877 79.3 151.04 81.01L149.52 82.53C149.203 82.8467 149.14 83.2267 149.33 83.67L150.375 85.57C150.628 86.0767 150.961 86.6467 151.373 87.28C151.784 87.9134 152.196 88.5625 152.608 89.2275C153.019 89.8925 153.431 90.51 153.843 91.08C154.254 91.65 154.587 92.125 154.84 92.505L157.595 96.59C157.848 96.8434 158.038 97.0017 158.165 97.065L164.245 99.25C164.752 99.5034 165.132 99.3767 165.385 98.87L168.14 95.26C169.153 93.8667 170.515 93.17 172.225 93.17H174.315C174.632 93.17 174.853 93.3284 174.98 93.645C175.297 94.2784 175.455 94.9434 175.455 95.64C175.455 96.97 174.98 98.205 174.03 99.345L148.57 128.89C148.38 129.08 148.285 129.302 148.285 129.555V141.145C148.285 141.715 148.538 142.095 149.045 142.285L155.22 144.47C155.347 144.533 155.473 144.565 155.6 144.565H199.205C199.838 144.565 200.155 144.28 200.155 143.71V130.03ZM152.845 138.2C152.338 138.2 152.085 137.947 152.085 137.44V130.885C152.085 130.695 152.148 130.537 152.275 130.41L176.785 101.91C178.432 100.073 179.255 98.015 179.255 95.735C179.255 94.5317 179.018 93.3759 178.543 92.2675C178.068 91.1592 177.418 90.2092 176.595 89.4175C175.772 88.6259 174.806 87.9925 173.698 87.5175C172.589 87.0425 171.433 86.805 170.23 86.805H165.005C162.408 86.805 160.255 87.755 158.545 89.655C158.418 89.845 158.228 89.9242 157.975 89.8925C157.722 89.8609 157.532 89.75 157.405 89.56L157.31 89.465C156.74 88.5784 156.17 87.7234 155.6 86.9C155.03 86.0767 154.492 85.2217 153.985 84.335C153.795 83.955 153.858 83.6384 154.175 83.385C155.568 82.1184 157.136 81.1209 158.878 80.3925C160.619 79.6642 162.503 79.2684 164.53 79.205H170.895C173.112 79.2684 175.186 79.7434 177.118 80.63C179.049 81.5167 180.743 82.7042 182.2 84.1925C183.657 85.6809 184.797 87.4067 185.62 89.37C186.443 91.3334 186.855 93.4234 186.855 95.64C186.855 97.6667 186.523 99.5667 185.858 101.34C185.193 103.113 184.258 104.728 183.055 106.185L162.155 129.27C161.902 129.587 161.854 129.888 162.013 130.173C162.171 130.458 162.408 130.6 162.725 130.6H188.47C188.977 130.6 189.23 130.853 189.23 131.36V137.44C189.23 137.947 188.977 138.2 188.47 138.2H152.845Z" fill="black" fill-opacity="0.85"/>
<path fill-rule="evenodd" clip-rule="evenodd" d="M252.072 117.633C251.281 115.448 250.157 113.437 248.7 111.6C248.383 111.283 248.352 110.935 248.605 110.555C251.328 106.945 252.69 102.86 252.69 98.3001C252.69 95.6401 252.199 93.1067 251.217 90.7001C250.236 88.2934 248.827 86.1401 246.99 84.2401C246.293 83.5434 245.375 82.7042 244.235 81.7226C243.095 80.7409 241.702 79.8067 240.055 78.9201C238.408 78.0334 236.429 77.2892 234.117 76.6876C231.806 76.0859 229.13 75.7851 226.09 75.7851C224.317 75.6584 222.464 75.6267 220.532 75.6901C218.601 75.7534 217.002 75.8484 215.735 75.9751C213.898 76.1651 212.157 76.7509 210.51 77.7326C208.863 78.7142 207.375 79.8384 206.045 81.1051L204.43 82.6251C204.05 83.0051 204.018 83.3851 204.335 83.7651L212.6 96.7801C212.79 96.9701 212.948 97.0651 213.075 97.0651L219.25 99.3451C219.693 99.5351 220.042 99.4401 220.295 99.0601L223.05 95.3551C224.127 93.9617 225.488 93.2651 227.135 93.2651H229.7C230.143 93.9617 230.365 94.8167 230.365 95.8301C230.365 97.2867 229.858 98.5376 228.845 99.5826C227.832 100.628 226.66 101.15 225.33 101.15H215.735V116.35L222.955 119.01H229.51C229.953 119.01 230.238 119.2 230.365 119.58C230.682 120.15 230.84 120.91 230.84 121.86C230.84 123.253 230.349 124.441 229.367 125.423C228.386 126.404 227.198 126.895 225.805 126.895H222.575C222.258 126.895 222.005 126.768 221.815 126.515L220.39 124.805C220.137 124.552 219.915 124.393 219.725 124.33L213.455 122.05C213.202 121.987 212.917 122.05 212.6 122.24L210.035 124.805C208.325 126.452 206.52 128.067 204.62 129.65L202.435 131.55C201.992 131.993 201.96 132.468 202.34 132.975L204.145 135.065C205.982 136.902 207.866 138.438 209.797 139.673C211.729 140.908 213.661 141.889 215.592 142.618C217.524 143.346 219.424 143.868 221.292 144.185C223.161 144.502 224.95 144.66 226.66 144.66H233.025C235.812 144.66 238.424 144.138 240.862 143.093C243.301 142.048 245.438 140.607 247.275 138.77C249.112 136.933 250.568 134.78 251.645 132.31C252.722 129.84 253.26 127.212 253.26 124.425C253.26 122.082 252.864 119.818 252.072 117.633ZM219.82 130.695H219.915H226.09H226.185C227.388 130.695 228.528 130.458 229.605 129.983C230.682 129.508 231.616 128.874 232.407 128.083C233.199 127.291 233.832 126.357 234.307 125.28C234.782 124.203 235.02 123.063 235.02 121.86C235.02 120.657 234.782 119.485 234.307 118.345C233.832 117.205 233.199 116.208 232.407 115.353C231.616 114.498 230.682 113.817 229.605 113.31C228.528 112.803 227.388 112.55 226.185 112.55H220.58C220.137 112.55 219.915 112.328 219.915 111.885V105.71C219.915 105.203 220.137 104.95 220.58 104.95H225.615C226.818 104.95 227.974 104.697 229.082 104.19C230.191 103.683 231.141 103.003 231.932 102.148C232.724 101.293 233.357 100.311 233.832 99.2026C234.307 98.0942 234.545 96.9384 234.545 95.7351C234.545 94.5317 234.307 93.3917 233.832 92.3151C233.357 91.2384 232.708 90.3042 231.885 89.5126C231.062 88.7209 230.096 88.0876 228.987 87.6126C227.879 87.1376 226.723 86.9001 225.52 86.9001H220.295C219.028 86.9001 217.841 87.1534 216.732 87.6601C215.624 88.1667 214.658 88.8634 213.835 89.7501C213.455 90.1301 213.075 90.0984 212.695 89.6551C212.252 89.0217 211.682 88.1826 210.985 87.1376C210.288 86.0926 209.718 85.1584 209.275 84.3351C209.085 84.0184 209.117 83.7334 209.37 83.4801C210.827 82.2134 212.426 81.2159 214.167 80.4876C215.909 79.7592 217.793 79.3634 219.82 79.3001H219.915H226.09H226.185C228.402 79.3634 230.476 79.8384 232.407 80.7251C234.339 81.6117 236.033 82.7992 237.49 84.2876C238.947 85.7759 240.087 87.5017 240.91 89.4651C241.733 91.4284 242.145 93.5184 242.145 95.7351C242.145 98.2051 241.638 100.501 240.625 102.623C239.612 104.744 238.25 106.565 236.54 108.085C236.16 108.465 236.192 108.813 236.635 109.13C238.472 110.65 239.928 112.503 241.005 114.688C242.082 116.873 242.62 119.263 242.62 121.86C242.62 124.14 242.192 126.278 241.337 128.273C240.482 130.268 239.311 132.009 237.822 133.498C236.334 134.986 234.592 136.158 232.597 137.013C230.602 137.868 228.465 138.295 226.185 138.295H226.09H219.915H219.82C217.413 138.295 215.197 137.836 213.17 136.918C211.143 135.999 209.37 134.748 207.85 133.165C207.597 132.785 207.628 132.437 207.945 132.12C208.705 131.423 209.465 130.743 210.225 130.078C210.985 129.413 211.745 128.732 212.505 128.035C212.885 127.655 213.202 127.655 213.455 128.035C214.278 128.858 215.228 129.508 216.305 129.983C217.382 130.458 218.553 130.695 219.82 130.695Z" fill="black" fill-opacity="0.85"/>
</g>
<g clip-path="url(#clip3_0_137)">
<path d="M13.57 158.15H15.955V164.27H11.86C9.34002 164.27 7.34502 163.527 5.87502 162.042C4.40502 160.557 3.67002 158.57 3.67002 156.08V151.805C3.67002 150.095 3.43752 148.872 2.97252 148.137C2.50752 147.402 1.58502 146.96 0.205017 146.81V140.69C1.58502 140.54 2.50752 140.097 2.97252 139.362C3.43752 138.627 3.67002 137.405 3.67002 135.695V131.42C3.67002 128.93 4.40502 126.942 5.87502 125.457C7.34502 123.972 9.34002 123.23 11.86 123.23H15.955V129.35H13.57C12.76 129.35 12.1075 129.612 11.6125 130.137C11.1175 130.662 10.87 131.33 10.87 132.14V138.125C10.87 141.185 9.58002 143.06 7.00002 143.75C9.58002 144.53 10.87 146.405 10.87 149.375V155.36C10.87 156.17 11.1175 156.837 11.6125 157.362C12.1075 157.887 12.76 158.15 13.57 158.15Z" fill="black" fill-opacity="0.85"/>
</g>
<g clip-path="url(#clip4_0_137)">
<path d="M272.84 77.21C271.44 77.21 270.25 76.9767 269.27 76.51V71.68C270.04 71.96 270.798 72.1 271.545 72.1C272.525 72.1 273.33 71.7733 273.96 71.12C274.59 70.4667 274.998 69.545 275.185 68.355L277.775 52.535C278.102 50.4117 278.977 48.6383 280.4 47.215C281.847 45.745 283.807 45.01 286.28 45.01C287.61 45.01 288.812 45.2433 289.885 45.71V50.54C289.115 50.26 288.357 50.12 287.61 50.12C285.557 50.12 284.32 51.3683 283.9 53.865L281.345 69.685C281.018 71.8083 280.143 73.5817 278.72 75.005C277.273 76.475 275.313 77.21 272.84 77.21Z" fill="black" fill-opacity="0.85"/>
<path d="M298.565 58.87V70H292.37V52.22H298.565V54.215C300.105 52.5817 301.902 51.765 303.955 51.765C305.915 51.765 307.461 52.4242 308.592 53.7425C309.724 55.0608 310.29 56.84 310.29 59.08V70H304.095V60.235C304.095 59.2317 303.862 58.4908 303.395 58.0125C302.928 57.5342 302.31 57.295 301.54 57.295C300.327 57.295 299.335 57.82 298.565 58.87Z" fill="black" fill-opacity="0.85"/>
<path d="M321.14 58.59H317.745L317.885 54.74L314.63 56.805L312.915 53.83L316.345 52.045L312.915 50.26L314.63 47.285L317.885 49.385L317.745 45.5H321.14L321 49.385L324.255 47.285L325.97 50.26L322.54 52.045L325.97 53.83L324.255 56.805L321 54.74L321.14 58.59Z" fill="black" fill-opacity="0.85"/>
<path d="M344.555 70H327.825V65.905L335.735 57.225H328.28V52.22H343.995V56.455L335.945 64.995H344.555V70Z" fill="black" fill-opacity="0.85"/>
</g>
</g>
<g opacity="0.556129" clip-path="url(#clip5_0_137)">
<g clip-path="url(#clip6_0_137)">
<path d="M213.342 42.7642L151 70.2932V135.97H213.342" stroke="#32C5FF" stroke-width="9.67" stroke-linecap="round" stroke-linejoin="round"/>
<path d="M213.342 154H288V30.529L213.342 3L213.342 56.5427" stroke="#32C5FF" stroke-width="9.67" stroke-linecap="round" stroke-linejoin="round"/>
<path d="M261.722 154H239.62V119.485H261.722V154Z" stroke="#32C5FF" stroke-width="5.67" stroke-linecap="round" stroke-linejoin="round"/>
</g>
<path d="M213.5 77V56" stroke="#32C5FF" stroke-width="9.6666" stroke-linecap="round" stroke-linejoin="round"/>
</g>
</g>
<defs>
<clipPath id="clip0_0_137">
<rect width="344.35" height="164.27" fill="white" transform="translate(0.205017)"/>
</clipPath>
<clipPath id="clip1_0_137">
<rect width="344.35" height="119.26" fill="white" transform="translate(0.205017 45.01)"/>
</clipPath>
<clipPath id="clip2_0_137">
<rect width="219.26" height="71.725" fill="white" transform="translate(34 75.405)"/>
</clipPath>
<clipPath id="clip3_0_137">
<rect width="15.75" height="41.04" fill="white" transform="translate(0.205017 123.23)"/>
</clipPath>
<clipPath id="clip4_0_137">
<rect width="75.285" height="32.2" fill="white" transform="translate(269.27 45.01)"/>
</clipPath>
<clipPath id="clip5_0_137">
<rect width="147" height="154" fill="white" transform="translate(141)"/>
</clipPath>
<clipPath id="clip6_0_137">
<rect width="137" height="151" fill="white" transform="matrix(1 0 0 -1 151 154)"/>
</clipPath>
</defs>
</svg>
