<?xml version="1.0" encoding="UTF-8"?>
<svg width="345px" height="167px" viewBox="0 0 345 167" version="1.1" xmlns="http://www.w3.org/2000/svg" xmlns:xlink="http://www.w3.org/1999/xlink">
    <title>logo C23</title>
    <defs>
        <polygon id="path-1" points="0 118 118 118 118 0 0 0"></polygon>
        <polygon id="path-3" points="0 118 118 118 118 0 0 0"></polygon>
    </defs>
    <g id="Page-1" stroke="none" stroke-width="1" fill="none" fill-rule="evenodd">
        <g id="Medium-Copy-5" transform="translate(-92, -100)">
            <g id="logo-C23" transform="translate(92.205, 102)">
                <g id="building" opacity="0.556129099" transform="translate(140.795, 0)">
                    <g id="Clipped">
                        <mask id="mask-2" fill="white">
                            <use xlink:href="#path-1"></use>
                        </mask>
                        <g id="Path" fill-rule="nonzero"></g>
                    </g>
                    <g id="Group" transform="translate(78.5, 78.5) scale(1, -1) rotate(0) translate(-78.5, -78.5)translate(10, 3)" fill-rule="nonzero" stroke="#32C5FF" stroke-linecap="round" stroke-linejoin="round">
                        <polyline id="Path" stroke-width="9.67000008" points="62.3417397 111.235746 2.25010882e-13 83.7067852 2.25010882e-13 18.029768 62.3417397 18.029768"></polyline>
                        <polyline id="Path" stroke-width="9.67000008" points="62.3417397 1.13686838e-13 136.999996 1.13686838e-13 136.999996 123.471046 62.3417397 151 62.3417397 97.4573059"></polyline>
                        <polygon id="Path" stroke-width="5.67000008" points="110.721773 1.13686838e-13 88.6196518 1.13686838e-13 88.6196518 34.5154686 110.721773 34.5154686"></polygon>
                    </g>
                    <g id="Clipped">
                        <mask id="mask-4" fill="white">
                            <use xlink:href="#path-3"></use>
                        </mask>
                        <g id="Path" fill-rule="nonzero"></g>
                        <g id="Group" mask="url(#mask-4)" fill-rule="nonzero" stroke="#000000" stroke-linecap="round" stroke-linejoin="round" stroke-width="9.67000008">
                            <g transform="translate(103.2591, 129.037) scale(1, -1) rotate(0) translate(-103.2591, -129.037)translate(72.3833, 104.7353)" id="Path">
                                <line x1="13.0202226" y1="20.0298347" x2="13.0202226" y2="2.27373675e-13"></line>
                            </g>
                        </g>
                    </g>
                    <line x1="72.5" y1="56" x2="72.5" y2="77" id="Path" stroke="#32C5FF" stroke-width="9.66660023" stroke-linecap="round" stroke-linejoin="round" fill-rule="nonzero" transform="translate(72.5, 66.5) scale(1, -1) rotate(0) translate(-72.5, -66.5)"></line>
                    <g id="Group" transform="translate(149.5, 14.5) scale(1, -1) rotate(0) translate(-149.5, -14.5)translate(73, -62)"></g>
                </g>
                <g id="logo-group" transform="translate(0, 45.01)" fill="#000000" fill-opacity="0.850000024" fill-rule="nonzero">
                    <g>
                        <g id="Ц-23-Copy" transform="translate(33.795, 30.395)">
                            <path d="M14.3450003,0.569999993 C14.5350003,0.569999993 14.661667,0.601666659 14.7250004,0.664999992 L20.9950008,2.94499999 C21.4383342,3.07166666 21.6599998,3.38833338 21.6599998,3.89500004 L21.6599998,49.7799991 L32.1100006,49.7799991 L32.1100006,1.61499995 C32.1100006,0.918333292 32.426668,0.569999993 33.0600014,0.569999993 L46.4550018,0.569999993 C46.5816685,0.569999993 46.7083324,0.601666659 46.8349991,0.664999992 L53.1049995,2.94499999 C53.5483329,3.07166666 53.7700005,3.38833338 53.7700005,3.89500004 L53.7700005,50.445 C53.7700005,50.8883333 53.991668,51.2050008 54.4350014,51.3950008 L55.8600006,51.9650005 C56.2400006,52.0916671 56.4300003,52.3766667 56.4300003,52.82 L56.4300003,70.7750018 C56.4300003,71.4083351 56.1133329,71.7249988 55.4799995,71.7249988 L41.7050018,71.7249988 L35.4350014,69.3499988 C34.991668,69.2233321 34.7700005,68.9383364 34.7700005,68.495003 L34.7700005,67.9250033 C34.7700005,67.2283367 34.4216651,66.8799976 33.7249985,66.8799976 L7.03000021,66.8799976 L0.569999993,64.5050014 C0.189999998,64.441668 0,64.1566685 0,63.6500018 L0,0.569999993 L14.3450003,0.569999993 Z M10.26,4.0850001 L4.65499997,4.0850001 C4.08499998,4.0850001 3.79999995,4.33833343 3.79999995,4.84500009 L3.79999995,59.4699984 C3.79999995,60.1033317 4.11666662,60.4199992 4.74999994,60.4199992 L37.5249984,60.4199992 C38.0316651,60.4199992 38.2850006,60.6733347 38.2850006,61.1800013 L38.2850006,64.6950007 C38.2850006,65.2016674 38.5383322,65.454999 39.0449989,65.454999 L44.7449996,65.454999 C45.2516663,65.454999 45.5050018,65.2016674 45.5050018,64.6950007 L45.5050018,54.8149996 C45.5050018,54.308333 45.2516663,54.0550013 44.7449996,54.0550013 L43.6050003,54.0550013 C43.0983336,54.0550013 42.8449981,53.8016658 42.8449981,53.2949992 L42.8449981,4.84500009 C42.8449981,4.33833343 42.5916665,4.0850001 42.0849998,4.0850001 L36.384999,4.0850001 C35.8783324,4.0850001 35.6250007,4.33833343 35.6250007,4.84500009 L35.6250007,53.3900004 C35.6250007,53.9600004 35.3716671,54.2449999 34.8650005,54.2449999 L11.78,54.2449999 C11.2733333,54.2449999 11.0199997,53.9600004 11.0199997,53.3900004 L11.0199997,4.84500009 C11.0199997,4.33833343 10.7666667,4.0850001 10.26,4.0850001 Z" id="Shape"></path>
                            <path d="M104.689999,26.5049992 C104.879999,26.5049992 105.006666,26.5366658 105.07,26.5999992 L111.434998,28.8799992 C111.814998,29.0699992 112.004997,29.3866659 112.004997,29.8299992 L112.004997,41.7999992 C112.004997,42.4333326 111.688334,42.75 111.055,42.75 L63.8399987,42.75 L57.4749988,40.4699993 C57.0949988,40.2799993 56.9049988,39.9633328 56.9049988,39.5199995 L56.9049988,27.4549991 C56.9049988,26.8216658 57.2216654,26.5049992 57.8549988,26.5049992 L104.689999,26.5049992 Z M98.4199996,30.1149991 L63.3649988,30.1149991 C62.3516655,30.1149991 61.8449988,30.6216657 61.8449988,31.634999 L61.8449988,35.0549991 C61.8449988,36.0683324 62.3516655,36.5749991 63.3649988,36.5749991 L98.4199996,36.5749991 C99.4333329,36.5749991 99.9400001,36.0683324 99.9400001,35.0549991 L99.9400001,31.634999 C99.9400001,30.6216657 99.4333329,30.1149991 98.4199996,30.1149991 Z" id="Shape"></path>
                            <path d="M137.275003,0 C137.655003,0 138.019171,0.0158333331 138.367504,0.0474999994 C138.715837,0.0791666657 139.080003,0.126666665 139.460003,0.189999998 C140.473336,0.316666663 141.72417,0.554166645 143.212503,0.902499974 C144.700837,1.2508333 146.284172,1.74166667 147.962505,2.375 C149.640839,3.00833333 151.36667,3.84749997 153.140003,4.89249992 C154.913337,5.93749988 156.560002,7.21999979 158.080002,8.73999977 C159.916669,10.5766665 161.325836,12.7141669 162.307503,15.1525002 C163.289169,17.5908334 163.780003,20.1399992 163.780003,22.7999992 C163.780003,25.206666 163.368335,27.5183339 162.545002,29.7350006 C161.721669,31.9516673 160.550003,33.9783319 159.030003,35.8149986 L158.935005,35.9099998 L144.970003,51.3950005 L159.125004,51.3950005 L165.585003,53.7700005 C165.965003,53.8966671 166.155003,54.1816667 166.155003,54.625 L166.155003,68.3050003 C166.155003,68.8750003 165.838335,69.1600037 165.205002,69.1600037 L121.600004,69.1600037 C121.473337,69.1600037 121.34667,69.1283358 121.220004,69.0650024 L115.045004,66.8799973 C114.538337,66.6899973 114.285004,66.3099979 114.285004,65.7399979 L114.285004,54.1500015 C114.285004,53.8966682 114.380004,53.6750006 114.570004,53.4850006 L140.030005,23.9400005 C140.980004,22.8000005 141.455004,21.5650007 141.455004,20.2350006 C141.455004,19.538334 141.29667,18.8733331 140.980003,18.2399998 C140.853337,17.9233331 140.631671,17.7649994 140.315004,17.7649994 L138.225004,17.7649994 C136.515004,17.7649994 135.153337,18.4616662 134.140003,19.8549995 L131.385004,23.4650002 C131.131671,23.9716668 130.75167,24.0983326 130.245004,23.8449993 L124.165004,21.6599998 C124.038337,21.5966665 123.848337,21.4383328 123.595004,21.1849995 L120.840003,17.1000004 C120.58667,16.7200004 120.25417,16.2450002 119.842504,15.6750002 C119.430837,15.1050002 119.019171,14.4875003 118.607504,13.8225002 C118.195837,13.1575002 117.78417,12.5083333 117.372504,11.875 C116.960837,11.2416667 116.628337,10.6716666 116.375004,10.165 L115.330004,8.26500034 C115.140004,7.82166702 115.203337,7.44166666 115.520004,7.125 L117.040004,5.60500002 C118.87667,3.89499998 120.935004,2.565 123.215004,1.61500001 C125.495004,0.665000021 127.90167,0.126666665 130.435003,0 L137.275003,0 Z M136.895003,3.79999995 L130.530003,3.79999995 C128.503337,3.86333328 126.61917,4.2591666 124.877504,4.98749995 C123.135837,5.71583331 121.568337,6.71333313 120.175004,7.97999978 C119.858337,8.23333311 119.795004,8.55000007 119.985004,8.93000007 C120.49167,9.81666672 121.030004,10.6716668 121.600004,11.4950001 C122.170004,12.3183334 122.740004,13.1733335 123.310004,14.0600002 L123.405004,14.1549995 C123.53167,14.3449995 123.72167,14.4558333 123.975003,14.4875 C124.228337,14.5191666 124.418337,14.4399998 124.545004,14.2499998 C126.255004,12.3499998 128.408337,11.3999999 131.005004,11.3999999 L136.230004,11.3999999 C137.433337,11.3999999 138.58917,11.6375 139.697503,12.1125 C140.805836,12.5874999 141.771671,13.2208329 142.595004,14.0124996 C143.418337,14.8041663 144.067504,15.7541666 144.542504,16.8625 C145.017504,17.9708333 145.255004,19.1266673 145.255004,20.3300006 C145.255004,22.6100006 144.431671,24.6683332 142.785004,26.5049999 L118.275004,55.0050018 C118.148337,55.1316684 118.085004,55.2900003 118.085004,55.4800003 L118.085004,62.0350006 C118.085004,62.5416672 118.338337,62.7949989 118.845004,62.7949989 L154.470002,62.7949989 C154.976669,62.7949989 155.230004,62.5416672 155.230004,62.0350006 L155.230004,55.9549987 C155.230004,55.4483321 154.976669,55.1950004 154.470002,55.1950004 L128.725004,55.1950004 C128.408337,55.1950004 128.170837,55.0524987 128.012503,54.7674987 C127.85417,54.4824987 127.90167,54.1816652 128.155003,53.8649986 L149.055003,30.7799995 C150.258336,29.3233328 151.192503,27.7083335 151.857503,25.9350002 C152.522503,24.1616669 152.855004,22.2616661 152.855004,20.2349994 C152.855004,18.0183327 152.443337,15.9283333 151.620003,13.9649999 C150.79667,12.0016665 149.65667,10.2758335 148.200003,8.78750014 C146.743337,7.2991668 145.04917,6.11166656 143.117503,5.2249999 C141.185836,4.33833325 139.11167,3.86333328 136.895003,3.79999995 Z" id="Shape"></path>
                            <path d="M192.089996,0.379999995 C195.129996,0.379999995 197.80583,0.68083334 200.117496,1.28250003 C202.429163,1.88416672 204.40833,2.62833345 206.054996,3.5150001 C207.701663,4.40166676 209.094997,5.33583319 210.234997,6.31749988 C211.374997,7.29916656 212.293331,8.13833362 212.989998,8.83500028 C214.826665,10.7350003 216.235828,12.8883336 217.217495,15.2950003 C218.199162,17.7016671 218.689995,20.2349997 218.689995,22.8949997 C218.689995,27.4549997 217.328329,31.5400009 214.604996,35.1500008 C214.351662,35.5300008 214.38333,35.8783323 214.699997,36.194999 C216.156664,38.0316657 217.280832,40.0425003 218.072498,42.2275002 C218.864165,44.4125001 219.259998,46.6766665 219.259998,49.0199997 C219.259998,51.8066664 218.721663,54.4350019 217.644997,56.9050019 C216.56833,59.3750019 215.111664,61.5283343 213.274998,63.365001 C211.438331,65.2016677 209.300829,66.6424993 206.862495,67.6874993 C204.424162,68.7324992 201.811662,69.2549965 199.024996,69.2549965 L192.659996,69.2549965 C190.949996,69.2549965 189.160829,69.0966647 187.292496,68.7799981 C185.424162,68.4633314 183.524163,67.9408342 181.592497,67.2125008 C179.66083,66.4841675 177.729163,65.5025011 175.797496,64.2675011 C173.86583,63.0325011 171.981663,61.4966658 170.144996,59.6599991 L168.339996,57.569999 C167.959996,57.0633323 167.991663,56.5883331 168.434996,56.1449997 L170.619997,54.2449982 C172.519997,52.6616648 174.324996,51.0466675 176.034997,49.4000008 L178.599997,46.8349984 C178.916663,46.6449984 179.201663,46.5816664 179.454996,46.6449997 L185.724997,48.9249985 C185.914997,48.9883319 186.136662,49.1466675 186.389996,49.4000008 L187.814997,51.1099999 C188.004997,51.3633332 188.25833,51.490001 188.574997,51.490001 L191.804996,51.490001 C193.19833,51.490001 194.38583,50.9991678 195.367496,50.0175011 C196.349163,49.0358344 196.839996,47.8483344 196.839996,46.4550011 C196.839996,45.5050011 196.681663,44.7449985 196.364996,44.1749985 C196.238329,43.7949985 195.95333,43.6049988 195.509996,43.6049988 L188.954996,43.6049988 L181.734997,40.944999 L181.734997,25.7450001 L191.329996,25.7450001 C192.659996,25.7450001 193.831664,25.222499 194.844997,24.1774991 C195.858331,23.1324991 196.364996,21.8816671 196.364996,20.4250004 C196.364996,19.4116671 196.14333,18.5566666 195.699997,17.8599999 L193.134996,17.8599999 C191.48833,17.8599999 190.126664,18.5566667 189.049997,19.95 L186.294996,23.655 C186.041663,24.035 185.69333,24.1299998 185.249996,23.9399998 L179.074997,21.6599991 C178.94833,21.6599991 178.789997,21.5649993 178.599997,21.3749993 L170.334996,8.3599999 C170.01833,7.9799999 170.049996,7.60000002 170.429996,7.22000003 L172.044997,5.70000005 C173.374997,4.4333334 174.86333,3.30916679 176.509996,2.3275001 C178.156663,1.34583342 179.89833,0.75999999 181.734997,0.569999993 C183.001663,0.443333328 184.600831,0.348333329 186.532497,0.284999996 C188.464164,0.221666664 190.316663,0.25333333 192.089996,0.379999995 Z M192.184997,3.89499998 L185.819997,3.89499998 C183.79333,3.95833331 181.909163,4.35416663 180.167496,5.08249998 C178.42583,5.81083333 176.826663,6.80833316 175.369996,8.07499981 C175.116663,8.32833314 175.084996,8.61333317 175.274996,8.92999983 C175.71833,9.75333315 176.28833,10.6875001 176.984996,11.7325001 C177.681663,12.7775 178.251663,13.6166662 178.694996,14.2499995 C179.074996,14.6933329 179.454996,14.7249998 179.834996,14.3449998 C180.65833,13.4583331 181.624163,12.7616663 182.732496,12.2549996 C183.84083,11.748333 185.02833,11.4949999 186.294996,11.4949999 L191.519996,11.4949999 C192.723329,11.4949999 193.879163,11.7325 194.987496,12.2075 C196.09583,12.6825 197.061662,13.3158329 197.884995,14.1074996 C198.708329,14.8991663 199.357496,15.8333336 199.832496,16.9100003 C200.307496,17.986667 200.544997,19.1266661 200.544997,20.3299994 C200.544997,21.5333328 200.307496,22.6891668 199.832496,23.7975001 C199.357496,24.9058335 198.724163,25.8874998 197.932496,26.7424998 C197.140829,27.5974998 196.190829,28.2783327 195.082496,28.7849994 C193.974162,29.291666 192.81833,29.5449996 191.614997,29.5449996 L186.579996,29.5449996 C186.136663,29.5449996 185.914996,29.7983332 185.914996,30.3049998 L185.914996,36.4799991 C185.914996,36.9233324 186.136663,37.145 186.579996,37.145 L192.184997,37.145 C193.38833,37.145 194.52833,37.3983316 195.604997,37.9049983 C196.681663,38.411665 197.61583,39.0925016 198.407496,39.9475017 C199.199163,40.8025017 199.832496,41.7999982 200.307496,42.9399981 C200.782496,44.0799981 201.019996,45.251668 201.019996,46.4550014 C201.019996,47.6583347 200.782496,48.7983328 200.307496,49.8749995 C199.832496,50.9516662 199.199163,51.8858345 198.407496,52.6775012 C197.61583,53.4691679 196.681663,54.1024989 195.604997,54.5774989 C194.52833,55.0524989 193.38833,55.2900004 192.184997,55.2900004 L185.819997,55.2900004 C184.55333,55.2900004 183.381663,55.0524989 182.304996,54.5774989 C181.22833,54.1024989 180.27833,53.4533339 179.454997,52.6300006 C179.201663,52.2500006 178.884996,52.2500006 178.504996,52.6300006 C177.744996,53.3266672 176.984996,54.0075001 176.224996,54.6725001 C175.464996,55.3375002 174.704996,56.018333 173.944996,56.7149997 C173.62833,57.0316663 173.596663,57.3800017 173.849996,57.7600017 C175.369996,59.343335 177.14333,60.5941669 179.169996,61.5125003 C181.196663,62.4308336 183.41333,62.8899989 185.819997,62.8899989 L192.184997,62.8899989 C194.464997,62.8899989 196.602497,62.4625015 198.597497,61.6075015 C200.592497,60.7525015 202.334162,59.5808316 203.822495,58.0924983 C205.310829,56.604165 206.482495,54.8624998 207.337495,52.8674998 C208.192495,50.8724998 208.619996,48.7350013 208.619996,46.4550014 C208.619996,43.8583348 208.081665,41.4675007 207.004998,39.2825007 C205.928331,37.0975008 204.471662,35.2449999 202.634995,33.7249999 C202.191662,33.4083332 202.159996,33.0599998 202.539996,32.6799998 C204.249996,31.1599998 205.611664,29.3391669 206.624997,27.2175002 C207.63833,25.0958335 208.144998,22.7999995 208.144998,20.3299994 C208.144998,18.1133327 207.73333,16.0233333 206.909997,14.0599999 C206.086664,12.0966666 204.946664,10.3708335 203.489997,8.88250017 C202.03333,7.39416683 200.339163,6.20666659 198.407496,5.31999993 C196.47583,4.43333328 194.401663,3.95833331 192.184997,3.89499998 Z" id="Shape"></path>
                        </g>
                        <g id="{" transform="translate(0, 78.22)">
                            <path d="M13.3649998,34.9199982 L15.75,34.9199982 L15.75,41.0400009 L11.6549997,41.0400009 C9.13499975,41.0400009 7.1400001,40.2975 5.67000008,38.8125 C4.20000005,37.3275 3.46499991,35.3399985 3.46499991,32.8499985 L3.46499991,28.5750008 C3.46499991,26.8650007 3.23249993,25.6424993 2.76749992,24.9074993 C2.30249992,24.1724993 1.38,23.7299999 0,23.5799999 L0,17.4599991 C1.38,17.3099991 2.30249992,16.8674997 2.76749992,16.1324997 C3.23249993,15.3974997 3.46499991,14.1750002 3.46499991,12.4650002 L3.46499991,8.18999958 C3.46499991,5.69999957 4.20000005,3.71249998 5.67000008,2.22749996 C7.1400001,0.742499948 9.13499975,0 11.6549997,0 L15.75,0 L15.75,6.11999989 L13.3649998,6.11999989 C12.5549998,6.11999989 11.9025003,6.38249981 11.4075003,6.90749979 C10.9125003,7.43249977 10.665,8.09999985 10.665,8.90999985 L10.665,14.8950005 C10.665,17.9550004 9.375,19.8300005 6.79500008,20.5200005 C9.375,21.3000004 10.665,23.1750004 10.665,26.1450005 L10.665,32.1300011 C10.665,32.9400011 10.9125003,33.6074997 11.4075003,34.1324997 C11.9025003,34.6574997 12.5549998,34.9199982 13.3649998,34.9199982 Z" id="Path"></path>
                        </g>
                        <g id="∫n*z-copy" transform="translate(269.065, 0)">
                            <path d="M3.56999993,32.2000008 C2.16999996,32.2000008 0.980000019,31.9666667 0,31.5 L0,26.6700001 C0.769999981,26.9500001 1.52833343,27.0900002 2.2750001,27.0900002 C3.25500011,27.0900002 4.06000006,26.7633339 4.69000006,26.1100006 C5.32000005,25.4566673 5.72833329,24.5349994 5.91499996,23.3449993 L8.50500011,7.5250001 C8.83166677,5.40166688 9.70666683,3.62833321 11.1300001,2.20499992 C12.5766668,0.734999895 14.5366669,0 17.0100002,0 C18.3400003,0 19.5416664,0.233333319 20.6149998,0.699999988 L20.6149998,5.53000021 C19.8449998,5.25000021 19.0866668,5.11000013 18.3400002,5.11000013 C16.2866669,5.11000013 15.0500001,6.35833287 14.6300001,8.85499954 L12.0749998,24.6749992 C11.7483332,26.7983325 10.8733331,28.5716676 9.44999981,29.9950008 C8.00333309,31.4650009 6.04333329,32.2000008 3.56999993,32.2000008 Z" id="Path"></path>
                            <path d="M29.2950006,13.8600001 L29.2950006,24.9900007 L23.1000004,24.9900007 L23.1000004,7.21000013 L29.2950006,7.21000013 L29.2950006,9.20500016 C30.8350005,7.57166684 32.6316671,6.75500011 34.6850004,6.75500011 C36.6450005,6.75500011 38.1908336,7.41416669 39.3225002,8.73250008 C40.4541669,10.0508335 41.0200005,11.8300002 41.0200005,14.0700002 L41.0200005,24.9900007 L34.8250008,24.9900007 L34.8250008,15.2250004 C34.8250008,14.2216671 34.5916667,13.4808334 34.125,13.0025001 C33.6583333,12.5241667 33.0400004,12.2850003 32.2700005,12.2850003 C31.0566671,12.2850003 30.0650005,12.8100002 29.2950006,13.8600001 Z" id="Path"></path>
                            <polygon id="Path" points="51.8700008 13.5800002 48.4750004 13.5800002 48.6150002 9.72999978 45.3600005 11.7950003 43.6450005 8.81999993 47.0750005 7.03500009 43.6450005 5.25000024 45.3600005 2.27499998 48.6150002 4.375 48.4750004 0.49000001 51.8700008 0.49000001 51.7300005 4.375 54.9850006 2.27499998 56.7000008 5.25000024 53.2700005 7.03500009 56.7000008 8.81999993 54.9850006 11.7950003 51.7300005 9.72999978"></polygon>
                            <polygon id="Path" points="75.2849998 24.9900007 58.5550003 24.9900007 58.5550003 20.8950005 66.4650002 12.2150002 59.0100003 12.2150002 59.0100003 7.21000004 74.7250004 7.21000004 74.7250004 11.4450002 66.6750002 19.9849997 75.2849998 19.9849997"></polygon>
                        </g>
                    </g>
                </g>
            </g>
        </g>
    </g>
</svg>