<svg width="58" height="58" viewBox="0 0 58 58" fill="none" xmlns="http://www.w3.org/2000/svg">
<path d="M16.2859 53.0458C13.5372 53.0466 10.85 52.232 8.5643 50.7052C6.27864 49.1783 4.49726 47.0077 3.44557 44.4681C2.39387 41.9286 2.11913 39.1341 2.6561 36.4383C3.19307 33.7425 4.51763 31.2666 6.46216 29.3238L26.9676 8.81597C27.3076 8.47595 27.7688 8.28493 28.2496 8.28493C28.7305 8.28493 29.1916 8.47595 29.5317 8.81597C29.8717 9.15599 30.0627 9.61716 30.0627 10.098C30.0627 10.5789 29.8717 11.04 29.5317 11.3801L9.02383 31.8855C8.03099 32.8303 7.23728 33.9643 6.68949 35.2206C6.14169 36.4769 5.85088 37.8302 5.83419 39.2006C5.81749 40.5711 6.07526 41.931 6.59229 43.2003C7.10932 44.4696 7.87517 45.6226 8.8447 46.5913C9.81424 47.5601 10.9679 48.325 12.2376 48.8409C13.5073 49.3569 14.8675 49.6135 16.2379 49.5957C17.6083 49.5779 18.9614 49.2859 20.2172 48.7371C21.4731 48.1882 22.6064 47.3936 23.5504 46.4L50.0371 19.9133C51.2508 18.6599 51.9232 16.9797 51.9092 15.235C51.8952 13.4903 51.1959 11.8211 49.9622 10.5873C48.7285 9.35363 47.0592 8.65434 45.3146 8.64033C43.5699 8.62633 41.8896 9.29872 40.6362 10.5125L19.2777 31.8855C18.9972 32.166 18.7747 32.4991 18.6228 32.8656C18.471 33.2322 18.3928 33.6251 18.3928 34.0218C18.3928 34.4186 18.471 34.8114 18.6228 35.178C18.7747 35.5445 18.9972 35.8776 19.2777 36.1581C19.5583 36.4387 19.8913 36.6612 20.2579 36.8131C20.6245 36.9649 21.0173 37.043 21.4141 37.043C21.8108 37.043 22.2037 36.9649 22.5703 36.8131C22.9368 36.6612 23.2699 36.4387 23.5504 36.1581L37.2167 22.4895C37.3838 22.3163 37.5837 22.1781 37.8048 22.083C38.0259 21.9879 38.2637 21.9378 38.5044 21.9356C38.745 21.9334 38.9837 21.9792 39.2065 22.0702C39.4293 22.1612 39.6317 22.2957 39.802 22.4658C39.9722 22.6359 40.1069 22.8382 40.1982 23.0609C40.2894 23.2836 40.3354 23.5223 40.3334 23.7629C40.3314 24.0036 40.2815 24.2414 40.1866 24.4626C40.0918 24.6838 39.9538 24.8839 39.7807 25.0511L26.1121 38.7222C25.495 39.3395 24.7623 39.8292 23.956 40.1633C23.1496 40.4974 22.2854 40.6694 21.4125 40.6696C20.5397 40.6697 19.6754 40.4979 18.8689 40.1639C18.0625 39.83 17.3297 39.3405 16.7125 38.7234C16.0952 38.1063 15.6055 37.3737 15.2714 36.5673C14.9373 35.761 14.7652 34.8967 14.7651 34.0239C14.7649 32.2611 15.4649 30.5704 16.7112 29.3238L38.0746 7.97497C40.0006 6.04863 42.613 4.96629 45.337 4.96606C48.0611 4.96584 50.6736 6.04774 52.5999 7.97376C54.5263 9.89979 55.6086 12.5122 55.6089 15.2362C55.6091 17.9602 54.5272 20.5728 52.6012 22.4991L26.1145 48.9761C24.8266 50.2705 23.2948 51.2967 21.6077 51.9952C19.9207 52.6938 18.1119 53.0508 16.2859 53.0458Z" fill="black"/>
</svg>
